<?xml version="1.0" standalone="no"?>
<svg xmlns:xlink="http://www.w3.org/1999/xlink" id="wave" style="transform:rotate(180deg); transition: 0.3s" viewBox="0 0 1440 490" version="1.1" xmlns="http://www.w3.org/2000/svg"><defs><linearGradient id="sw-gradient-0" x1="0" x2="0" y1="1" y2="0">
    <stop stop-color="rgba(0, 0, 162, 1)" offset="0%"/>
    <stop stop-color="rgba(0, 0, 210, 1)" offset="100%"/></linearGradient>
</defs><path style="transform:translate(0, 0px); opacity:1" fill="url(#sw-gradient-0)" d="M0,98L48,122.5C96,147,192,196,288,179.7C384,163,480,82,576,89.8C672,98,768,196,864,228.7C960,261,1056,229,1152,236.8C1248,245,1344,294,1440,318.5C1536,343,1632,343,1728,294C1824,245,1920,147,2016,122.5C2112,98,2208,147,2304,179.7C2400,212,2496,229,2592,245C2688,261,2784,278,2880,245C2976,212,3072,131,3168,130.7C3264,131,3360,212,3456,277.7C3552,343,3648,392,3744,351.2C3840,310,3936,180,4032,163.3C4128,147,4224,245,4320,285.8C4416,327,4512,310,4608,294C4704,278,4800,261,4896,212.3C4992,163,5088,82,5184,73.5C5280,65,5376,131,5472,204.2C5568,278,5664,359,5760,359.3C5856,359,5952,278,6048,269.5C6144,261,6240,327,6336,334.8C6432,343,6528,294,6624,228.7C6720,163,6816,82,6864,40.8L6912,0L6912,490L6864,490C6816,490,6720,490,6624,490C6528,490,6432,490,6336,490C6240,490,6144,490,6048,490C5952,490,5856,490,5760,490C5664,490,5568,490,5472,490C5376,490,5280,490,5184,490C5088,490,4992,490,4896,490C4800,490,4704,490,4608,490C4512,490,4416,490,4320,490C4224,490,4128,490,4032,490C3936,490,3840,490,3744,490C3648,490,3552,490,3456,490C3360,490,3264,490,3168,490C3072,490,2976,490,2880,490C2784,490,2688,490,2592,490C2496,490,2400,490,2304,490C2208,490,2112,490,2016,490C1920,490,1824,490,1728,490C1632,490,1536,490,1440,490C1344,490,1248,490,1152,490C1056,490,960,490,864,490C768,490,672,490,576,490C480,490,384,490,288,490C192,490,96,490,48,490L0,490Z"/></svg>